<svg xmlns="http://www.w3.org/2000/svg" version="1.1" xmlns:xlink="http://www.w3.org/1999/xlink" xmlns:svgjs="http://svgjs.dev/svgjs" width="128" height="128" viewBox="0 0 128 128"><g transform="matrix(0.4724770642201835,0,0,0.4724770642201835,33.61311485551053,12.333870967741937)"><svg viewBox="0 0 91 155" data-background-color="#000000" preserveAspectRatio="xMidYMid meet" height="218" width="128" xmlns="http://www.w3.org/2000/svg" xmlns:xlink="http://www.w3.org/1999/xlink"><g id="tight-bounds" transform="matrix(1,0,0,1,0.22322720694646137,0.25)"><svg viewBox="0 0 90.55354558610708 154.5" height="154.5" width="90.55354558610708"><g><svg viewBox="0 0 90.55354558610708 154.5" height="154.5" width="90.55354558610708"><g><svg viewBox="0 0 90.55354558610708 154.5" height="154.5" width="90.55354558610708"><g id="textblocktransform"><svg viewBox="0 0 90.55354558610708 154.5" height="154.5" width="90.55354558610708" id="textblock"><g><svg viewBox="0 0 90.55354558610708 154.5" height="154.5" width="90.55354558610708"><g transform="matrix(1,0,0,1,0,0)"><svg width="90.55354558610708" viewBox="0.75 -34.55 20.25 34.55" height="154.5" data-palette-color="url(#40bdaf6d-1d52-4a12-ba12-ad40217d2495)"></svg></g></svg></g></svg></g></svg></g></svg></g><defs></defs><mask id="0df968b0-4c70-4e0c-8cae-f868e1e2ed73"><g id="SvgjsG1994"><svg viewBox="0 0 90.55354558610708 154.5" height="154.5" width="90.55354558610708"><g><svg viewBox="0 0 90.55354558610708 154.5" height="154.5" width="90.55354558610708"><g><svg viewBox="0 0 90.55354558610708 154.5" height="154.5" width="90.55354558610708"><g id="SvgjsG1993"><svg viewBox="0 0 90.55354558610708 154.5" height="154.5" width="90.55354558610708" id="SvgjsSvg1992"><g><svg viewBox="0 0 90.55354558610708 154.5" height="154.5" width="90.55354558610708"><g transform="matrix(1,0,0,1,0,0)"><svg width="90.55354558610708" viewBox="0.75 -34.55 20.25 34.55" height="154.5" data-palette-color="url(#40bdaf6d-1d52-4a12-ba12-ad40217d2495)"><path d="M2.05-34.55L20.85-34.55 20.85-29.6 7.65-5.2 21-5.2 20.4 0 0.75 0 0.75-4.9 14-29.45 2.05-29.45 2.05-34.55Z" opacity="1" transform="matrix(1,0,0,1,0,0)" fill="white" class="wordmark-text-0" id="SvgjsPath1991"></path></svg></g></svg></g></svg></g></svg></g></svg></g><defs><mask></mask></defs></svg><rect width="90.55354558610708" height="154.5" fill="black" stroke="none" visibility="hidden"></rect></g></mask><linearGradient x1="0" x2="1" y1="0.548" y2="0.55" id="40bdaf6d-1d52-4a12-ba12-ad40217d2495"><stop stop-color="#ff6cab" offset="0"></stop><stop stop-color="#7366ff" offset="1"></stop></linearGradient><rect width="90.55354558610708" height="154.5" fill="url(#40bdaf6d-1d52-4a12-ba12-ad40217d2495)" mask="url(#0df968b0-4c70-4e0c-8cae-f868e1e2ed73)" data-fill-palette-color="primary"></rect></svg><rect width="90.55354558610708" height="154.5" fill="none" stroke="none" visibility="hidden"></rect></g></svg></g></svg>