<svg xmlns="http://www.w3.org/2000/svg" version="1.1" xmlns:xlink="http://www.w3.org/1999/xlink" xmlns:svgjs="http://svgjs.dev/svgjs" width="2000" height="611" viewBox="0 0 2000 611"><g transform="matrix(1,0,0,1,-1.2121212121212466,-0.4948383009059967)"><svg viewBox="0 0 396 121" data-background-color="#000000" preserveAspectRatio="xMidYMid meet" height="611" width="2000" xmlns="http://www.w3.org/2000/svg" xmlns:xlink="http://www.w3.org/1999/xlink"><g id="tight-bounds" transform="matrix(1,0,0,1,0.2400000000000091,0.09799580099775085)"><svg viewBox="0 0 395.52 120.80400839800448" height="120.80400839800448" width="395.52"><g><svg viewBox="0 0 596.3971113337038 182.15807455021837" height="120.80400839800448" width="395.52"><g transform="matrix(1,0,0,1,0,51.43282846208814)"><svg viewBox="0 0 395.52 79.2924176260421" height="79.2924176260421" width="395.52"><g id="textblocktransform"><svg viewBox="0 0 395.52 79.2924176260421" height="79.2924176260421" width="395.52" id="textblock"><g><svg viewBox="0 0 395.52 79.2924176260421" height="79.2924176260421" width="395.52"><g transform="matrix(1,0,0,1,0,0)"><svg width="395.52" viewBox="0.75 -39.65 251.87 50.5" height="79.2924176260421" data-palette-color="url(#18f671ec-f310-43eb-93bd-7b1955dc7548)"></svg></g></svg></g></svg></g></svg></g><g transform="matrix(1,0,0,1,414.2390367834855,0)"><svg viewBox="0 0 182.15807455021837 182.15807455021837" height="182.15807455021837" width="182.15807455021837"><g><svg></svg></g><g id="icon-0"><svg viewBox="0 0 182.15807455021837 182.15807455021837" height="182.15807455021837" width="182.15807455021837"><g></g><g transform="matrix(1,0,0,1,23.639348908718148,23.613083737991275)"><svg viewBox="0 0 134.87937673278208 134.93190707423582" height="134.93190707423582" width="134.87937673278208"><g><svg xmlns="http://www.w3.org/2000/svg" xmlns:xlink="http://www.w3.org/1999/xlink" version="1.1" x="0" y="0" viewBox="6.35 6.333 87.30000000000001 87.334" enable-background="new 0 0 100 100" xml:space="preserve" height="134.93190707423582" width="134.87937673278208" class="icon-cg-0" data-fill-palette-color="quaternary" id="cg-0"><g fill="#000000" data-fill-palette-color="quaternary"><g fill="#000000" data-fill-palette-color="quaternary"><polygon points="50,14.108 50.952,12.457 40.327,6.333 18.058,19.19 18.058,31.163 6.35,37.923 6.35,63.637 18.058,70.397     18.058,80.809 40.329,93.667 51.906,86.97 51.906,56.997 51.868,50.001 51.906,44.411 51.906,13.007 50.952,12.457 50,14.108     48.094,14.108 48.094,44.398 48.094,44.385 48.057,49.995 48.094,57.026 48.094,84.771 40.327,89.265 21.869,78.608     21.869,68.196 10.162,61.437 10.162,40.123 21.869,33.364 21.869,21.391 40.329,10.733 49.048,15.759 50,14.108 48.094,14.108       " fill="#000000" data-fill-palette-color="quaternary"></polygon><polyline points="19.042,33.931 25.506,37.504 27.35,34.168 20.886,30.596   " fill="#000000" data-fill-palette-color="quaternary"></polyline><ellipse transform="matrix(0.4837 -0.8752 0.8752 0.4837 -17.7249 41.4675)" cx="26.286" cy="35.758" rx="2.866" ry="2.866" fill="#000000" data-fill-palette-color="quaternary"></ellipse><path d="M24.715 38.6c-1.567-0.866-2.137-2.846-1.271-4.413 0.866-1.567 2.846-2.137 4.413-1.271 1.567 0.866 2.137 2.846 1.271 4.413C28.262 38.895 26.282 39.466 24.715 38.6 23.149 37.734 26.282 39.466 24.715 38.6zM27.488 33.583c-1.199-0.663-2.714-0.227-3.377 0.973s-0.227 2.714 0.973 3.377c1.2 0.663 2.714 0.227 3.377-0.973C29.124 35.76 28.688 34.246 27.488 33.583 26.289 32.92 28.688 34.246 27.488 33.583z" fill="#000000" data-fill-palette-color="quaternary"></path><polyline points="20.787,71.015 27.169,67.958 25.523,64.521 19.14,67.578   " fill="#000000" data-fill-palette-color="quaternary"></polyline><ellipse transform="matrix(0.9019 -0.432 0.432 0.9019 -26.076 17.8262)" cx="26.2" cy="66.309" rx="2.866" ry="2.866" fill="#000000" data-fill-palette-color="quaternary"></ellipse><path d="M27.602 69.238c-1.615 0.773-3.558 0.089-4.331-1.526-0.773-1.615-0.089-3.558 1.526-4.331 1.615-0.773 3.558-0.089 4.331 1.526C29.902 66.521 29.217 68.464 27.602 69.238 25.988 70.011 29.217 68.464 27.602 69.238zM25.126 64.068c-1.236 0.592-1.76 2.079-1.167 3.314 0.592 1.236 2.079 1.76 3.314 1.167 1.236-0.592 1.76-2.079 1.167-3.315C27.849 64 26.362 63.476 25.126 64.068 23.89 64.661 26.362 63.476 25.126 64.068z" fill="#000000" data-fill-palette-color="quaternary"></path><polygon points="33.079,27.062 36.137,29.42 36.137,39.045 27.812,44.638 27.812,58.59 36.137,62.363 36.137,72.289     32.708,75.576 35.345,78.327 39.949,73.915 39.949,59.905 31.623,56.133 31.623,46.669 39.949,41.076 39.949,27.545     35.406,24.043 33.079,27.062   " fill="#000000" data-fill-palette-color="quaternary"></polygon><ellipse transform="matrix(0.6105 -0.792 0.792 0.6105 -6.9293 37.2131)" cx="34.371" cy="25.652" rx="2.866" ry="2.866" fill="#000000" data-fill-palette-color="quaternary"></ellipse><path d="M32.388 28.224c1.418 1.093 3.461 0.829 4.554-0.589 1.093-1.418 0.829-3.461-0.589-4.554-1.418-1.093-3.461-0.829-4.554 0.589S30.97 27.13 32.388 28.224C33.806 29.316 30.97 27.13 32.388 28.224zM35.888 23.684c1.085 0.837 1.288 2.4 0.451 3.485-0.837 1.085-2.4 1.288-3.485 0.451-1.085-0.837-1.288-2.4-0.451-3.485C33.239 23.049 34.802 22.847 35.888 23.684 36.973 24.52 34.802 22.847 35.888 23.684z" fill="#000000" data-fill-palette-color="quaternary"></path><ellipse transform="matrix(0.722 -0.6919 0.6919 0.722 -43.6733 44.9864)" cx="34.143" cy="76.839" rx="2.866" ry="2.866" fill="#000000" data-fill-palette-color="quaternary"></ellipse><path d="M31.897 74.495c1.293-1.239 3.352-1.195 4.591 0.098 1.239 1.293 1.195 3.352-0.098 4.591-1.293 1.239-3.352 1.195-4.591-0.098C30.56 77.793 30.604 75.734 31.897 74.495 33.189 73.256 30.604 75.734 31.897 74.495zM35.863 78.633c0.989-0.948 1.023-2.524 0.075-3.513-0.948-0.989-2.524-1.023-3.513-0.075-0.99 0.948-1.023 2.524-0.075 3.513C33.298 79.548 34.873 79.581 35.863 78.633 36.852 77.685 34.873 79.581 35.863 78.633z" fill="#000000" data-fill-palette-color="quaternary"></path><polyline points="8.256,53.283 15.576,53.283 15.576,49.472 8.256,49.472   " fill="#000000" data-fill-palette-color="quaternary"></polyline><circle cx="15.413" cy="51.378" r="2.9" fill="#000000" data-fill-palette-color="quaternary"></circle><path d="M15.413 54.625c-1.79 0-3.247-1.457-3.247-3.247 0-1.79 1.457-3.247 3.247-3.247 1.79 0 3.247 1.457 3.247 3.247C18.66 53.168 17.204 54.625 15.413 54.625 13.623 54.625 17.204 54.625 15.413 54.625zM15.413 48.893c-1.37 0-2.485 1.114-2.485 2.485 0 1.37 1.114 2.485 2.485 2.485 1.37 0 2.485-1.114 2.485-2.485C17.898 50.007 16.784 48.893 15.413 48.893 14.043 48.893 16.784 48.893 15.413 48.893z" fill="#000000" data-fill-palette-color="quaternary"></path><polyline points="42.561,53.283 49.881,53.283 49.881,49.472 42.561,49.472   " fill="#000000" data-fill-palette-color="quaternary"></polyline><circle cx="42.724" cy="51.378" r="2.9" fill="#000000" data-fill-palette-color="quaternary"></circle><path d="M42.724 54.625c1.79 0 3.247-1.457 3.247-3.247 0-1.79-1.457-3.247-3.247-3.247-1.79 0-3.247 1.457-3.247 3.247C39.477 53.168 40.933 54.625 42.724 54.625 44.514 54.625 40.933 54.625 42.724 54.625zM42.724 48.893c1.37 0 2.485 1.114 2.485 2.485 0 1.37-1.114 2.485-2.485 2.485-1.37 0-2.485-1.114-2.485-2.485C40.239 50.007 41.353 48.893 42.724 48.893 44.094 48.893 41.353 48.893 42.724 48.893z" fill="#000000" data-fill-palette-color="quaternary"></path><polygon points="50,14.108 50.952,15.759 59.671,10.733 78.131,21.391 78.131,33.364 89.838,40.123 89.838,61.437 78.131,68.196     78.131,78.608 59.673,89.265 51.906,84.771 51.906,57.016 51.944,49.993 51.906,44.385 51.906,44.398 51.906,14.108 50,14.108     50.952,15.759 50,14.108 48.094,14.108 48.094,44.414 48.132,50.003 48.094,57.006 48.094,86.97 59.671,93.667 81.942,80.809     81.942,70.397 93.65,63.638 93.65,37.923 81.942,31.163 81.942,19.19 59.673,6.333 48.094,13.007 48.094,14.108   " fill="#000000" data-fill-palette-color="quaternary"></polygon><polyline points="79.115,30.596 72.65,34.168 74.494,37.504 80.958,33.931   " fill="#000000" data-fill-palette-color="quaternary"></polyline><ellipse transform="matrix(0.8752 -0.4837 0.4837 0.8752 -8.0989 40.1191)" cx="73.714" cy="35.758" rx="2.866" ry="2.866" fill="#000000" data-fill-palette-color="quaternary"></ellipse><path d="M72.143 32.916c1.567-0.866 3.547-0.296 4.413 1.271 0.866 1.567 0.296 3.547-1.271 4.413-1.567 0.866-3.547 0.296-4.413-1.271C70.006 35.761 70.576 33.782 72.143 32.916 73.71 32.05 70.576 33.782 72.143 32.916zM74.916 37.932c1.199-0.663 1.636-2.177 0.973-3.377s-2.177-1.636-3.377-0.973c-1.2 0.663-1.636 2.177-0.973 3.377C72.202 38.159 73.717 38.595 74.916 37.932 76.115 37.27 73.717 38.595 74.916 37.932z" fill="#000000" data-fill-palette-color="quaternary"></path><polyline points="80.86,67.578 74.477,64.521 72.831,67.958 79.213,71.015   " fill="#000000" data-fill-palette-color="quaternary"></polyline><ellipse transform="matrix(0.432 -0.9019 0.9019 0.432 -17.8854 104.2191)" cx="73.801" cy="66.309" rx="2.866" ry="2.866" fill="#000000" data-fill-palette-color="quaternary"></ellipse><path d="M75.203 63.381c1.615 0.773 2.299 2.717 1.526 4.331-0.773 1.615-2.717 2.299-4.331 1.526-1.615-0.773-2.299-2.717-1.526-4.331C71.646 63.292 73.589 62.608 75.203 63.381 76.818 64.154 73.589 62.608 75.203 63.381zM72.727 68.55c1.236 0.592 2.722 0.068 3.314-1.167 0.592-1.236 0.068-2.722-1.167-3.314-1.236-0.592-2.722-0.069-3.315 1.167C70.967 66.472 71.491 67.958 72.727 68.55 73.963 69.142 71.491 67.958 72.727 68.55z" fill="#000000" data-fill-palette-color="quaternary"></path><polygon points="64.594,24.043 60.051,27.545 60.051,41.076 68.377,46.669 68.377,56.133 60.051,59.905 60.051,73.915     64.655,78.327 67.293,75.576 63.863,72.289 63.863,62.363 72.188,58.59 72.188,44.638 63.863,39.045 63.863,29.42 66.921,27.062     64.595,24.043   " fill="#000000" data-fill-palette-color="quaternary"></polygon><ellipse transform="matrix(0.792 -0.6105 0.6105 0.792 -2.0106 45.4019)" cx="65.629" cy="25.652" rx="2.866" ry="2.866" fill="#000000" data-fill-palette-color="quaternary"></ellipse><path d="M63.647 23.08c-1.418 1.093-1.682 3.136-0.589 4.554 1.093 1.418 3.136 1.682 4.554 0.589 1.418-1.093 1.682-3.136 0.589-4.554C67.108 22.251 65.065 21.987 63.647 23.08 62.229 24.173 65.065 21.987 63.647 23.08zM67.146 27.62c-1.085 0.837-2.648 0.634-3.485-0.451-0.837-1.085-0.634-2.648 0.451-3.485 1.085-0.837 2.648-0.634 3.485 0.451C68.434 25.22 68.232 26.783 67.146 27.62 66.061 28.456 68.232 26.783 67.146 27.62z" fill="#000000" data-fill-palette-color="quaternary"></path><ellipse transform="matrix(0.6919 -0.722 0.722 0.6919 -35.1869 71.2213)" cx="65.857" cy="76.839" rx="2.866" ry="2.866" fill="#000000" data-fill-palette-color="quaternary"></ellipse><path d="M63.61 79.184c-1.293-1.239-1.336-3.298-0.098-4.591 1.239-1.293 3.298-1.336 4.591-0.098 1.293 1.239 1.336 3.299 0.098 4.591C66.962 80.379 64.903 80.422 63.61 79.184 62.317 77.945 64.903 80.422 63.61 79.184zM67.576 75.045c-0.989-0.948-2.565-0.915-3.513 0.075-0.948 0.989-0.915 2.565 0.075 3.513 0.99 0.948 2.565 0.915 3.513-0.075C68.599 77.569 68.565 75.993 67.576 75.045 66.587 74.097 68.565 75.993 67.576 75.045z" fill="#000000" data-fill-palette-color="quaternary"></path><polyline points="91.744,49.472 84.425,49.472 84.425,53.283 91.744,53.283   " fill="#000000" data-fill-palette-color="quaternary"></polyline><circle cx="84.587" cy="51.378" r="2.9" fill="#000000" data-fill-palette-color="quaternary"></circle><path d="M84.587 48.131c1.79 0 3.247 1.457 3.247 3.247 0 1.79-1.457 3.247-3.247 3.247-1.79 0-3.247-1.457-3.247-3.247C81.34 49.587 82.797 48.131 84.587 48.131 86.377 48.131 82.797 48.131 84.587 48.131zM84.587 53.862c1.37 0 2.485-1.114 2.485-2.485 0-1.37-1.114-2.485-2.485-2.485-1.37 0-2.485 1.114-2.485 2.485C82.102 52.748 83.216 53.862 84.587 53.862 85.957 53.862 83.216 53.862 84.587 53.862z" fill="#000000" data-fill-palette-color="quaternary"></path><polyline points="57.439,49.472 50.119,49.472 50.119,53.283 57.439,53.283   " fill="#000000" data-fill-palette-color="quaternary"></polyline><circle cx="57.276" cy="51.378" r="2.9" fill="#000000" data-fill-palette-color="quaternary"></circle><path d="M57.276 48.131c-1.79 0-3.247 1.457-3.247 3.247 0 1.79 1.457 3.247 3.247 3.247s3.247-1.457 3.247-3.247C60.523 49.587 59.067 48.131 57.276 48.131S59.067 48.131 57.276 48.131zM57.276 53.862c-1.37 0-2.485-1.114-2.485-2.485 0-1.37 1.114-2.485 2.485-2.485s2.485 1.114 2.485 2.485C59.761 52.748 58.647 53.862 57.276 53.862S58.647 53.862 57.276 53.862z" fill="#000000" data-fill-palette-color="quaternary"></path></g></g></svg></g></svg></g></svg></g></svg></g></svg></g><defs></defs><mask id="53c89c2b-524b-4e09-ab1d-811fb75598df"><g id="SvgjsG2226"><svg viewBox="0 0 395.52 120.80400839800448" height="120.80400839800448" width="395.52"><g><svg viewBox="0 0 596.3971113337038 182.15807455021837" height="120.80400839800448" width="395.52"><g transform="matrix(1,0,0,1,0,51.43282846208814)"><svg viewBox="0 0 395.52 79.2924176260421" height="79.2924176260421" width="395.52"><g id="SvgjsG2225"><svg viewBox="0 0 395.52 79.2924176260421" height="79.2924176260421" width="395.52" id="SvgjsSvg2224"><g><svg viewBox="0 0 395.52 79.2924176260421" height="79.2924176260421" width="395.52"><g transform="matrix(1,0,0,1,0,0)"><svg width="395.52" viewBox="0.75 -39.65 251.87 50.5" height="79.2924176260421" data-palette-color="url(#18f671ec-f310-43eb-93bd-7b1955dc7548)"><path d="M2.05-34.55L20.85-34.55 20.85-29.6 7.65-5.2 21-5.2 20.4 0 0.75 0 0.75-4.9 14-29.45 2.05-29.45 2.05-34.55ZM37.2-27.15Q40.05-27.15 41.7-25.1 43.35-23.05 43.35-19.6L43.35-19.6 43.35 0 37.2 0 37.2-18.9Q37.2-20.8 36.67-21.63 36.15-22.45 35.15-22.45L35.15-22.45Q33.05-22.45 31-18.5L31-18.5 31 0 24.85 0 24.85-37 31-37.65 31-23.3Q32.25-25.25 33.72-26.2 35.2-27.15 37.2-27.15L37.2-27.15ZM48.9-26.45L55.05-26.45 55.05 0 48.9 0 48.9-26.45ZM51.95-39.65Q53.59-39.65 54.62-38.6 55.65-37.55 55.65-35.9L55.65-35.9Q55.65-34.3 54.62-33.25 53.59-32.2 51.95-32.2L51.95-32.2Q50.3-32.2 49.27-33.25 48.25-34.3 48.25-35.9L48.25-35.9Q48.25-37.55 49.27-38.6 50.3-39.65 51.95-39.65L51.95-39.65ZM85.59-34.55L92.09-34.55 82.99-13.15 82.99 0 76.59 0 76.59-13.1 67.49-34.55 74.24-34.55 79.89-18.3 85.59-34.55ZM111.59-6.4Q111.59-5.1 111.94-4.48 112.29-3.85 113.09-3.45L113.09-3.45 111.84 0.65Q109.79 0.4 108.56-0.45 107.34-1.3 106.74-3.05L106.74-3.05Q104.44 0.75 100.29 0.75L100.29 0.75Q96.99 0.75 95.04-1.48 93.09-3.7 93.09-7.4L93.09-7.4Q93.09-11.7 95.76-13.95 98.44-16.2 103.54-16.2L103.54-16.2 105.59-16.2 105.59-18.05Q105.59-20.55 104.71-21.58 103.84-22.6 101.89-22.6L101.89-22.6Q99.54-22.6 96.04-21.3L96.04-21.3 94.64-25.3Q96.64-26.2 98.79-26.68 100.94-27.15 102.89-27.15L102.89-27.15Q111.59-27.15 111.59-18.35L111.59-18.35 111.59-6.4ZM101.94-3.7Q104.34-3.7 105.59-7L105.59-7 105.59-12.55 104.14-12.55Q101.59-12.55 100.41-11.4 99.24-10.25 99.24-7.85L99.24-7.85Q99.24-5.8 99.94-4.75 100.64-3.7 101.94-3.7L101.94-3.7ZM129.74-27.15Q132.59-27.15 134.24-25.1 135.89-23.05 135.89-19.6L135.89-19.6 135.89 0 129.74 0 129.74-18.9Q129.74-20.8 129.21-21.63 128.69-22.45 127.69-22.45L127.69-22.45Q125.59-22.45 123.54-18.5L123.54-18.5 123.54 0 117.39 0 117.39-26.45 122.74-26.45 123.19-23Q124.54-25.1 126.06-26.13 127.59-27.15 129.74-27.15L129.74-27.15ZM176.93-34.55L182.83-34.55 177.98 0 169.63 0 165.93-27.8 162.08 0 153.88 0 149.13-34.55 155.28-34.55 158.48-5.1 162.63-34.55 169.38-34.55 173.43-5.1 176.93-34.55ZM203.28-6.4Q203.28-5.1 203.63-4.48 203.98-3.85 204.78-3.45L204.78-3.45 203.53 0.65Q201.48 0.4 200.25-0.45 199.03-1.3 198.43-3.05L198.43-3.05Q196.13 0.75 191.98 0.75L191.98 0.75Q188.68 0.75 186.73-1.48 184.78-3.7 184.78-7.4L184.78-7.4Q184.78-11.7 187.45-13.95 190.13-16.2 195.23-16.2L195.23-16.2 197.28-16.2 197.28-18.05Q197.28-20.55 196.4-21.58 195.53-22.6 193.58-22.6L193.58-22.6Q191.23-22.6 187.73-21.3L187.73-21.3 186.33-25.3Q188.33-26.2 190.48-26.68 192.63-27.15 194.58-27.15L194.58-27.15Q203.28-27.15 203.28-18.35L203.28-18.35 203.28-6.4ZM193.63-3.7Q196.03-3.7 197.28-7L197.28-7 197.28-12.55 195.83-12.55Q193.28-12.55 192.1-11.4 190.93-10.25 190.93-7.85L190.93-7.85Q190.93-5.8 191.63-4.75 192.33-3.7 193.63-3.7L193.63-3.7ZM221.43-27.15Q224.28-27.15 225.93-25.1 227.58-23.05 227.58-19.6L227.58-19.6 227.58 0 221.43 0 221.43-18.9Q221.43-20.8 220.9-21.63 220.38-22.45 219.38-22.45L219.38-22.45Q217.28-22.45 215.23-18.5L215.23-18.5 215.23 0 209.08 0 209.08-26.45 214.43-26.45 214.88-23Q216.23-25.1 217.75-26.13 219.28-27.15 221.43-27.15L221.43-27.15ZM251.07-29.85L252.62-25.1Q251.57-24.6 250.1-24.4 248.62-24.2 246.42-24.2L246.42-24.2Q248.52-23.2 249.55-21.53 250.57-19.85 250.57-17.4L250.57-17.4Q250.57-13.4 248.12-10.95 245.67-8.5 241.47-8.5L241.47-8.5Q240.22-8.5 238.92-8.9L238.92-8.9Q238.02-8.15 238.02-6.85L238.02-6.85Q238.02-5.85 238.57-5.35 239.12-4.85 240.62-4.85L240.62-4.85 243.42-4.85Q247.42-4.85 249.77-2.78 252.12-0.7 252.12 2.5L252.12 2.5Q252.12 6.3 249.2 8.58 246.27 10.85 240.87 10.85L240.87 10.85Q235.17 10.85 232.9 8.75 230.62 6.65 230.62 2.6L230.62 2.6 236.07 2.6Q236.07 4.75 237.07 5.65 238.07 6.55 240.92 6.55L240.92 6.55Q243.67 6.55 244.82 5.6 245.97 4.65 245.97 2.9L245.97 2.9Q245.97 1.2 245.02 0.4 244.07-0.4 242.07-0.4L242.07-0.4 240.17-0.4Q236.37-0.4 234.62-1.75 232.87-3.1 232.87-5.45L232.87-5.45Q232.87-6.8 233.6-8.03 234.32-9.25 235.57-10.2L235.57-10.2Q233.52-11.5 232.57-13.3 231.62-15.1 231.62-17.7L231.62-17.7Q231.62-22.05 234.22-24.58 236.82-27.1 241.22-27.1L241.22-27.1Q244.47-27.1 246.6-27.8 248.72-28.5 251.07-29.85L251.07-29.85ZM241.22-23Q239.47-23 238.57-21.75 237.67-20.5 237.67-17.8L237.67-17.8Q237.67-15.25 238.57-13.88 239.47-12.5 241.17-12.5L241.17-12.5Q242.92-12.5 243.77-13.73 244.62-14.95 244.62-17.85L244.62-17.85Q244.62-20.55 243.8-21.78 242.97-23 241.22-23L241.22-23Z" opacity="1" transform="matrix(1,0,0,1,0,0)" fill="white" class="wordmark-text-0" id="SvgjsPath2223"></path></svg></g></svg></g></svg></g></svg></g><g transform="matrix(1,0,0,1,414.2390367834855,0)"><svg viewBox="0 0 182.15807455021837 182.15807455021837" height="182.15807455021837" width="182.15807455021837"><g><svg></svg></g><g id="SvgjsG2222"><svg viewBox="0 0 182.15807455021837 182.15807455021837" height="182.15807455021837" width="182.15807455021837"><g><rect width="165.62891593362448" height="165.62891593362448" x="8.264579308296945" y="8.264579308296945" fill="black"></rect><rect width="165.62891593362448" height="165.62891593362448" x="1.7763568394002505e-15" y="1.7763568394002505e-15" fill="black" opacity="0.5"></rect></g><g transform="matrix(1,0,0,1,23.639348908718148,23.613083737991275)"><svg viewBox="0 0 134.87937673278208 134.93190707423582" height="134.93190707423582" width="134.87937673278208"><g><svg xmlns="http://www.w3.org/2000/svg" xmlns:xlink="http://www.w3.org/1999/xlink" version="1.1" x="0" y="0" viewBox="6.35 6.333 87.30000000000001 87.334" enable-background="new 0 0 100 100" xml:space="preserve" height="134.93190707423582" width="134.87937673278208" class="icon-cg-0" data-fill-palette-color="quaternary" id="SvgjsSvg2221"><g fill="black"><g fill="black"><polygon points="50,14.108 50.952,12.457 40.327,6.333 18.058,19.19 18.058,31.163 6.35,37.923 6.35,63.637 18.058,70.397     18.058,80.809 40.329,93.667 51.906,86.97 51.906,56.997 51.868,50.001 51.906,44.411 51.906,13.007 50.952,12.457 50,14.108     48.094,14.108 48.094,44.398 48.094,44.385 48.057,49.995 48.094,57.026 48.094,84.771 40.327,89.265 21.869,78.608     21.869,68.196 10.162,61.437 10.162,40.123 21.869,33.364 21.869,21.391 40.329,10.733 49.048,15.759 50,14.108 48.094,14.108       " fill="black"></polygon><polyline points="19.042,33.931 25.506,37.504 27.35,34.168 20.886,30.596   " fill="black"></polyline><ellipse transform="matrix(0.4837 -0.8752 0.8752 0.4837 -17.7249 41.4675)" cx="26.286" cy="35.758" rx="2.866" ry="2.866" fill="black"></ellipse><path d="M24.715 38.6c-1.567-0.866-2.137-2.846-1.271-4.413 0.866-1.567 2.846-2.137 4.413-1.271 1.567 0.866 2.137 2.846 1.271 4.413C28.262 38.895 26.282 39.466 24.715 38.6 23.149 37.734 26.282 39.466 24.715 38.6zM27.488 33.583c-1.199-0.663-2.714-0.227-3.377 0.973s-0.227 2.714 0.973 3.377c1.2 0.663 2.714 0.227 3.377-0.973C29.124 35.76 28.688 34.246 27.488 33.583 26.289 32.92 28.688 34.246 27.488 33.583z" fill="black"></path><polyline points="20.787,71.015 27.169,67.958 25.523,64.521 19.14,67.578   " fill="black"></polyline><ellipse transform="matrix(0.9019 -0.432 0.432 0.9019 -26.076 17.8262)" cx="26.2" cy="66.309" rx="2.866" ry="2.866" fill="black"></ellipse><path d="M27.602 69.238c-1.615 0.773-3.558 0.089-4.331-1.526-0.773-1.615-0.089-3.558 1.526-4.331 1.615-0.773 3.558-0.089 4.331 1.526C29.902 66.521 29.217 68.464 27.602 69.238 25.988 70.011 29.217 68.464 27.602 69.238zM25.126 64.068c-1.236 0.592-1.76 2.079-1.167 3.314 0.592 1.236 2.079 1.76 3.314 1.167 1.236-0.592 1.76-2.079 1.167-3.315C27.849 64 26.362 63.476 25.126 64.068 23.89 64.661 26.362 63.476 25.126 64.068z" fill="black"></path><polygon points="33.079,27.062 36.137,29.42 36.137,39.045 27.812,44.638 27.812,58.59 36.137,62.363 36.137,72.289     32.708,75.576 35.345,78.327 39.949,73.915 39.949,59.905 31.623,56.133 31.623,46.669 39.949,41.076 39.949,27.545     35.406,24.043 33.079,27.062   " fill="black"></polygon><ellipse transform="matrix(0.6105 -0.792 0.792 0.6105 -6.9293 37.2131)" cx="34.371" cy="25.652" rx="2.866" ry="2.866" fill="black"></ellipse><path d="M32.388 28.224c1.418 1.093 3.461 0.829 4.554-0.589 1.093-1.418 0.829-3.461-0.589-4.554-1.418-1.093-3.461-0.829-4.554 0.589S30.97 27.13 32.388 28.224C33.806 29.316 30.97 27.13 32.388 28.224zM35.888 23.684c1.085 0.837 1.288 2.4 0.451 3.485-0.837 1.085-2.4 1.288-3.485 0.451-1.085-0.837-1.288-2.4-0.451-3.485C33.239 23.049 34.802 22.847 35.888 23.684 36.973 24.52 34.802 22.847 35.888 23.684z" fill="black"></path><ellipse transform="matrix(0.722 -0.6919 0.6919 0.722 -43.6733 44.9864)" cx="34.143" cy="76.839" rx="2.866" ry="2.866" fill="black"></ellipse><path d="M31.897 74.495c1.293-1.239 3.352-1.195 4.591 0.098 1.239 1.293 1.195 3.352-0.098 4.591-1.293 1.239-3.352 1.195-4.591-0.098C30.56 77.793 30.604 75.734 31.897 74.495 33.189 73.256 30.604 75.734 31.897 74.495zM35.863 78.633c0.989-0.948 1.023-2.524 0.075-3.513-0.948-0.989-2.524-1.023-3.513-0.075-0.99 0.948-1.023 2.524-0.075 3.513C33.298 79.548 34.873 79.581 35.863 78.633 36.852 77.685 34.873 79.581 35.863 78.633z" fill="black"></path><polyline points="8.256,53.283 15.576,53.283 15.576,49.472 8.256,49.472   " fill="black"></polyline><circle cx="15.413" cy="51.378" r="2.9" fill="black"></circle><path d="M15.413 54.625c-1.79 0-3.247-1.457-3.247-3.247 0-1.79 1.457-3.247 3.247-3.247 1.79 0 3.247 1.457 3.247 3.247C18.66 53.168 17.204 54.625 15.413 54.625 13.623 54.625 17.204 54.625 15.413 54.625zM15.413 48.893c-1.37 0-2.485 1.114-2.485 2.485 0 1.37 1.114 2.485 2.485 2.485 1.37 0 2.485-1.114 2.485-2.485C17.898 50.007 16.784 48.893 15.413 48.893 14.043 48.893 16.784 48.893 15.413 48.893z" fill="black"></path><polyline points="42.561,53.283 49.881,53.283 49.881,49.472 42.561,49.472   " fill="black"></polyline><circle cx="42.724" cy="51.378" r="2.9" fill="black"></circle><path d="M42.724 54.625c1.79 0 3.247-1.457 3.247-3.247 0-1.79-1.457-3.247-3.247-3.247-1.79 0-3.247 1.457-3.247 3.247C39.477 53.168 40.933 54.625 42.724 54.625 44.514 54.625 40.933 54.625 42.724 54.625zM42.724 48.893c1.37 0 2.485 1.114 2.485 2.485 0 1.37-1.114 2.485-2.485 2.485-1.37 0-2.485-1.114-2.485-2.485C40.239 50.007 41.353 48.893 42.724 48.893 44.094 48.893 41.353 48.893 42.724 48.893z" fill="black"></path><polygon points="50,14.108 50.952,15.759 59.671,10.733 78.131,21.391 78.131,33.364 89.838,40.123 89.838,61.437 78.131,68.196     78.131,78.608 59.673,89.265 51.906,84.771 51.906,57.016 51.944,49.993 51.906,44.385 51.906,44.398 51.906,14.108 50,14.108     50.952,15.759 50,14.108 48.094,14.108 48.094,44.414 48.132,50.003 48.094,57.006 48.094,86.97 59.671,93.667 81.942,80.809     81.942,70.397 93.65,63.638 93.65,37.923 81.942,31.163 81.942,19.19 59.673,6.333 48.094,13.007 48.094,14.108   " fill="black"></polygon><polyline points="79.115,30.596 72.65,34.168 74.494,37.504 80.958,33.931   " fill="black"></polyline><ellipse transform="matrix(0.8752 -0.4837 0.4837 0.8752 -8.0989 40.1191)" cx="73.714" cy="35.758" rx="2.866" ry="2.866" fill="black"></ellipse><path d="M72.143 32.916c1.567-0.866 3.547-0.296 4.413 1.271 0.866 1.567 0.296 3.547-1.271 4.413-1.567 0.866-3.547 0.296-4.413-1.271C70.006 35.761 70.576 33.782 72.143 32.916 73.71 32.05 70.576 33.782 72.143 32.916zM74.916 37.932c1.199-0.663 1.636-2.177 0.973-3.377s-2.177-1.636-3.377-0.973c-1.2 0.663-1.636 2.177-0.973 3.377C72.202 38.159 73.717 38.595 74.916 37.932 76.115 37.27 73.717 38.595 74.916 37.932z" fill="black"></path><polyline points="80.86,67.578 74.477,64.521 72.831,67.958 79.213,71.015   " fill="black"></polyline><ellipse transform="matrix(0.432 -0.9019 0.9019 0.432 -17.8854 104.2191)" cx="73.801" cy="66.309" rx="2.866" ry="2.866" fill="black"></ellipse><path d="M75.203 63.381c1.615 0.773 2.299 2.717 1.526 4.331-0.773 1.615-2.717 2.299-4.331 1.526-1.615-0.773-2.299-2.717-1.526-4.331C71.646 63.292 73.589 62.608 75.203 63.381 76.818 64.154 73.589 62.608 75.203 63.381zM72.727 68.55c1.236 0.592 2.722 0.068 3.314-1.167 0.592-1.236 0.068-2.722-1.167-3.314-1.236-0.592-2.722-0.069-3.315 1.167C70.967 66.472 71.491 67.958 72.727 68.55 73.963 69.142 71.491 67.958 72.727 68.55z" fill="black"></path><polygon points="64.594,24.043 60.051,27.545 60.051,41.076 68.377,46.669 68.377,56.133 60.051,59.905 60.051,73.915     64.655,78.327 67.293,75.576 63.863,72.289 63.863,62.363 72.188,58.59 72.188,44.638 63.863,39.045 63.863,29.42 66.921,27.062     64.595,24.043   " fill="black"></polygon><ellipse transform="matrix(0.792 -0.6105 0.6105 0.792 -2.0106 45.4019)" cx="65.629" cy="25.652" rx="2.866" ry="2.866" fill="black"></ellipse><path d="M63.647 23.08c-1.418 1.093-1.682 3.136-0.589 4.554 1.093 1.418 3.136 1.682 4.554 0.589 1.418-1.093 1.682-3.136 0.589-4.554C67.108 22.251 65.065 21.987 63.647 23.08 62.229 24.173 65.065 21.987 63.647 23.08zM67.146 27.62c-1.085 0.837-2.648 0.634-3.485-0.451-0.837-1.085-0.634-2.648 0.451-3.485 1.085-0.837 2.648-0.634 3.485 0.451C68.434 25.22 68.232 26.783 67.146 27.62 66.061 28.456 68.232 26.783 67.146 27.62z" fill="black"></path><ellipse transform="matrix(0.6919 -0.722 0.722 0.6919 -35.1869 71.2213)" cx="65.857" cy="76.839" rx="2.866" ry="2.866" fill="black"></ellipse><path d="M63.61 79.184c-1.293-1.239-1.336-3.298-0.098-4.591 1.239-1.293 3.298-1.336 4.591-0.098 1.293 1.239 1.336 3.299 0.098 4.591C66.962 80.379 64.903 80.422 63.61 79.184 62.317 77.945 64.903 80.422 63.61 79.184zM67.576 75.045c-0.989-0.948-2.565-0.915-3.513 0.075-0.948 0.989-0.915 2.565 0.075 3.513 0.99 0.948 2.565 0.915 3.513-0.075C68.599 77.569 68.565 75.993 67.576 75.045 66.587 74.097 68.565 75.993 67.576 75.045z" fill="black"></path><polyline points="91.744,49.472 84.425,49.472 84.425,53.283 91.744,53.283   " fill="black"></polyline><circle cx="84.587" cy="51.378" r="2.9" fill="black"></circle><path d="M84.587 48.131c1.79 0 3.247 1.457 3.247 3.247 0 1.79-1.457 3.247-3.247 3.247-1.79 0-3.247-1.457-3.247-3.247C81.34 49.587 82.797 48.131 84.587 48.131 86.377 48.131 82.797 48.131 84.587 48.131zM84.587 53.862c1.37 0 2.485-1.114 2.485-2.485 0-1.37-1.114-2.485-2.485-2.485-1.37 0-2.485 1.114-2.485 2.485C82.102 52.748 83.216 53.862 84.587 53.862 85.957 53.862 83.216 53.862 84.587 53.862z" fill="black"></path><polyline points="57.439,49.472 50.119,49.472 50.119,53.283 57.439,53.283   " fill="black"></polyline><circle cx="57.276" cy="51.378" r="2.9" fill="black"></circle><path d="M57.276 48.131c-1.79 0-3.247 1.457-3.247 3.247 0 1.79 1.457 3.247 3.247 3.247s3.247-1.457 3.247-3.247C60.523 49.587 59.067 48.131 57.276 48.131S59.067 48.131 57.276 48.131zM57.276 53.862c-1.37 0-2.485-1.114-2.485-2.485 0-1.37 1.114-2.485 2.485-2.485s2.485 1.114 2.485 2.485C59.761 52.748 58.647 53.862 57.276 53.862S58.647 53.862 57.276 53.862z" fill="black"></path></g></g></svg></g></svg></g></svg></g></svg></g></svg></g><defs><mask></mask></defs></svg><rect width="395.52" height="120.80400839800448" fill="black" stroke="none" visibility="hidden"></rect></g></mask><linearGradient x1="0" x2="1" y1="0.548" y2="0.55" id="18f671ec-f310-43eb-93bd-7b1955dc7548"><stop stop-color="#ff6cab" offset="0"></stop><stop stop-color="#7366ff" offset="1"></stop></linearGradient><rect width="395.52" height="120.80400839800448" fill="url(#18f671ec-f310-43eb-93bd-7b1955dc7548)" mask="url(#53c89c2b-524b-4e09-ab1d-811fb75598df)" data-fill-palette-color="primary"></rect><mask id="99aeaacc-e55c-4a20-91b2-3a0df4c77d46"><g id="SvgjsG2249"><svg viewBox="0 0 395.52 120.80400839800448" height="120.80400839800448" width="395.52"><g><svg viewBox="0 0 596.3971113337038 182.15807455021837" height="120.80400839800448" width="395.52"><g transform="matrix(1,0,0,1,0,51.43282846208814)"><svg viewBox="0 0 395.52 79.2924176260421" height="79.2924176260421" width="395.52"><g id="SvgjsG2248"><svg viewBox="0 0 395.52 79.2924176260421" height="79.2924176260421" width="395.52" id="SvgjsSvg2247"><g><svg viewBox="0 0 395.52 79.2924176260421" height="79.2924176260421" width="395.52"><g transform="matrix(1,0,0,1,0,0)"><svg width="395.52" viewBox="0.75 -39.65 251.87 50.5" height="79.2924176260421" data-palette-color="url(#18f671ec-f310-43eb-93bd-7b1955dc7548)"></svg></g></svg></g></svg></g></svg></g><g transform="matrix(1,0,0,1,414.2390367834855,0)"><svg viewBox="0 0 182.15807455021837 182.15807455021837" height="182.15807455021837" width="182.15807455021837"><g><svg></svg></g><g id="SvgjsG2246"><svg viewBox="0 0 182.15807455021837 182.15807455021837" height="182.15807455021837" width="182.15807455021837"><g><rect width="165.62891593362448" height="165.62891593362448" x="8.264579308296945" y="8.264579308296945" fill="white"></rect><rect width="165.62891593362448" height="165.62891593362448" x="1.7763568394002505e-15" y="1.7763568394002505e-15" fill="white" opacity="0.5"></rect></g><g transform="matrix(1,0,0,1,23.639348908718148,23.613083737991275)"><svg viewBox="0 0 134.87937673278208 134.93190707423582" height="134.93190707423582" width="134.87937673278208"><g><svg xmlns="http://www.w3.org/2000/svg" xmlns:xlink="http://www.w3.org/1999/xlink" version="1.1" x="0" y="0" viewBox="6.35 6.333 87.30000000000001 87.334" enable-background="new 0 0 100 100" xml:space="preserve" height="134.93190707423582" width="134.87937673278208" class="icon-cg-0" data-fill-palette-color="quaternary" id="SvgjsSvg2245"><g fill="black"><g fill="black"><polygon points="50,14.108 50.952,12.457 40.327,6.333 18.058,19.19 18.058,31.163 6.35,37.923 6.35,63.637 18.058,70.397     18.058,80.809 40.329,93.667 51.906,86.97 51.906,56.997 51.868,50.001 51.906,44.411 51.906,13.007 50.952,12.457 50,14.108     48.094,14.108 48.094,44.398 48.094,44.385 48.057,49.995 48.094,57.026 48.094,84.771 40.327,89.265 21.869,78.608     21.869,68.196 10.162,61.437 10.162,40.123 21.869,33.364 21.869,21.391 40.329,10.733 49.048,15.759 50,14.108 48.094,14.108       " fill="black"></polygon><polyline points="19.042,33.931 25.506,37.504 27.35,34.168 20.886,30.596   " fill="black"></polyline><ellipse transform="matrix(0.4837 -0.8752 0.8752 0.4837 -17.7249 41.4675)" cx="26.286" cy="35.758" rx="2.866" ry="2.866" fill="black"></ellipse><path d="M24.715 38.6c-1.567-0.866-2.137-2.846-1.271-4.413 0.866-1.567 2.846-2.137 4.413-1.271 1.567 0.866 2.137 2.846 1.271 4.413C28.262 38.895 26.282 39.466 24.715 38.6 23.149 37.734 26.282 39.466 24.715 38.6zM27.488 33.583c-1.199-0.663-2.714-0.227-3.377 0.973s-0.227 2.714 0.973 3.377c1.2 0.663 2.714 0.227 3.377-0.973C29.124 35.76 28.688 34.246 27.488 33.583 26.289 32.92 28.688 34.246 27.488 33.583z" fill="black"></path><polyline points="20.787,71.015 27.169,67.958 25.523,64.521 19.14,67.578   " fill="black"></polyline><ellipse transform="matrix(0.9019 -0.432 0.432 0.9019 -26.076 17.8262)" cx="26.2" cy="66.309" rx="2.866" ry="2.866" fill="black"></ellipse><path d="M27.602 69.238c-1.615 0.773-3.558 0.089-4.331-1.526-0.773-1.615-0.089-3.558 1.526-4.331 1.615-0.773 3.558-0.089 4.331 1.526C29.902 66.521 29.217 68.464 27.602 69.238 25.988 70.011 29.217 68.464 27.602 69.238zM25.126 64.068c-1.236 0.592-1.76 2.079-1.167 3.314 0.592 1.236 2.079 1.76 3.314 1.167 1.236-0.592 1.76-2.079 1.167-3.315C27.849 64 26.362 63.476 25.126 64.068 23.89 64.661 26.362 63.476 25.126 64.068z" fill="black"></path><polygon points="33.079,27.062 36.137,29.42 36.137,39.045 27.812,44.638 27.812,58.59 36.137,62.363 36.137,72.289     32.708,75.576 35.345,78.327 39.949,73.915 39.949,59.905 31.623,56.133 31.623,46.669 39.949,41.076 39.949,27.545     35.406,24.043 33.079,27.062   " fill="black"></polygon><ellipse transform="matrix(0.6105 -0.792 0.792 0.6105 -6.9293 37.2131)" cx="34.371" cy="25.652" rx="2.866" ry="2.866" fill="black"></ellipse><path d="M32.388 28.224c1.418 1.093 3.461 0.829 4.554-0.589 1.093-1.418 0.829-3.461-0.589-4.554-1.418-1.093-3.461-0.829-4.554 0.589S30.97 27.13 32.388 28.224C33.806 29.316 30.97 27.13 32.388 28.224zM35.888 23.684c1.085 0.837 1.288 2.4 0.451 3.485-0.837 1.085-2.4 1.288-3.485 0.451-1.085-0.837-1.288-2.4-0.451-3.485C33.239 23.049 34.802 22.847 35.888 23.684 36.973 24.52 34.802 22.847 35.888 23.684z" fill="black"></path><ellipse transform="matrix(0.722 -0.6919 0.6919 0.722 -43.6733 44.9864)" cx="34.143" cy="76.839" rx="2.866" ry="2.866" fill="black"></ellipse><path d="M31.897 74.495c1.293-1.239 3.352-1.195 4.591 0.098 1.239 1.293 1.195 3.352-0.098 4.591-1.293 1.239-3.352 1.195-4.591-0.098C30.56 77.793 30.604 75.734 31.897 74.495 33.189 73.256 30.604 75.734 31.897 74.495zM35.863 78.633c0.989-0.948 1.023-2.524 0.075-3.513-0.948-0.989-2.524-1.023-3.513-0.075-0.99 0.948-1.023 2.524-0.075 3.513C33.298 79.548 34.873 79.581 35.863 78.633 36.852 77.685 34.873 79.581 35.863 78.633z" fill="black"></path><polyline points="8.256,53.283 15.576,53.283 15.576,49.472 8.256,49.472   " fill="black"></polyline><circle cx="15.413" cy="51.378" r="2.9" fill="black"></circle><path d="M15.413 54.625c-1.79 0-3.247-1.457-3.247-3.247 0-1.79 1.457-3.247 3.247-3.247 1.79 0 3.247 1.457 3.247 3.247C18.66 53.168 17.204 54.625 15.413 54.625 13.623 54.625 17.204 54.625 15.413 54.625zM15.413 48.893c-1.37 0-2.485 1.114-2.485 2.485 0 1.37 1.114 2.485 2.485 2.485 1.37 0 2.485-1.114 2.485-2.485C17.898 50.007 16.784 48.893 15.413 48.893 14.043 48.893 16.784 48.893 15.413 48.893z" fill="black"></path><polyline points="42.561,53.283 49.881,53.283 49.881,49.472 42.561,49.472   " fill="black"></polyline><circle cx="42.724" cy="51.378" r="2.9" fill="black"></circle><path d="M42.724 54.625c1.79 0 3.247-1.457 3.247-3.247 0-1.79-1.457-3.247-3.247-3.247-1.79 0-3.247 1.457-3.247 3.247C39.477 53.168 40.933 54.625 42.724 54.625 44.514 54.625 40.933 54.625 42.724 54.625zM42.724 48.893c1.37 0 2.485 1.114 2.485 2.485 0 1.37-1.114 2.485-2.485 2.485-1.37 0-2.485-1.114-2.485-2.485C40.239 50.007 41.353 48.893 42.724 48.893 44.094 48.893 41.353 48.893 42.724 48.893z" fill="black"></path><polygon points="50,14.108 50.952,15.759 59.671,10.733 78.131,21.391 78.131,33.364 89.838,40.123 89.838,61.437 78.131,68.196     78.131,78.608 59.673,89.265 51.906,84.771 51.906,57.016 51.944,49.993 51.906,44.385 51.906,44.398 51.906,14.108 50,14.108     50.952,15.759 50,14.108 48.094,14.108 48.094,44.414 48.132,50.003 48.094,57.006 48.094,86.97 59.671,93.667 81.942,80.809     81.942,70.397 93.65,63.638 93.65,37.923 81.942,31.163 81.942,19.19 59.673,6.333 48.094,13.007 48.094,14.108   " fill="black"></polygon><polyline points="79.115,30.596 72.65,34.168 74.494,37.504 80.958,33.931   " fill="black"></polyline><ellipse transform="matrix(0.8752 -0.4837 0.4837 0.8752 -8.0989 40.1191)" cx="73.714" cy="35.758" rx="2.866" ry="2.866" fill="black"></ellipse><path d="M72.143 32.916c1.567-0.866 3.547-0.296 4.413 1.271 0.866 1.567 0.296 3.547-1.271 4.413-1.567 0.866-3.547 0.296-4.413-1.271C70.006 35.761 70.576 33.782 72.143 32.916 73.71 32.05 70.576 33.782 72.143 32.916zM74.916 37.932c1.199-0.663 1.636-2.177 0.973-3.377s-2.177-1.636-3.377-0.973c-1.2 0.663-1.636 2.177-0.973 3.377C72.202 38.159 73.717 38.595 74.916 37.932 76.115 37.27 73.717 38.595 74.916 37.932z" fill="black"></path><polyline points="80.86,67.578 74.477,64.521 72.831,67.958 79.213,71.015   " fill="black"></polyline><ellipse transform="matrix(0.432 -0.9019 0.9019 0.432 -17.8854 104.2191)" cx="73.801" cy="66.309" rx="2.866" ry="2.866" fill="black"></ellipse><path d="M75.203 63.381c1.615 0.773 2.299 2.717 1.526 4.331-0.773 1.615-2.717 2.299-4.331 1.526-1.615-0.773-2.299-2.717-1.526-4.331C71.646 63.292 73.589 62.608 75.203 63.381 76.818 64.154 73.589 62.608 75.203 63.381zM72.727 68.55c1.236 0.592 2.722 0.068 3.314-1.167 0.592-1.236 0.068-2.722-1.167-3.314-1.236-0.592-2.722-0.069-3.315 1.167C70.967 66.472 71.491 67.958 72.727 68.55 73.963 69.142 71.491 67.958 72.727 68.55z" fill="black"></path><polygon points="64.594,24.043 60.051,27.545 60.051,41.076 68.377,46.669 68.377,56.133 60.051,59.905 60.051,73.915     64.655,78.327 67.293,75.576 63.863,72.289 63.863,62.363 72.188,58.59 72.188,44.638 63.863,39.045 63.863,29.42 66.921,27.062     64.595,24.043   " fill="black"></polygon><ellipse transform="matrix(0.792 -0.6105 0.6105 0.792 -2.0106 45.4019)" cx="65.629" cy="25.652" rx="2.866" ry="2.866" fill="black"></ellipse><path d="M63.647 23.08c-1.418 1.093-1.682 3.136-0.589 4.554 1.093 1.418 3.136 1.682 4.554 0.589 1.418-1.093 1.682-3.136 0.589-4.554C67.108 22.251 65.065 21.987 63.647 23.08 62.229 24.173 65.065 21.987 63.647 23.08zM67.146 27.62c-1.085 0.837-2.648 0.634-3.485-0.451-0.837-1.085-0.634-2.648 0.451-3.485 1.085-0.837 2.648-0.634 3.485 0.451C68.434 25.22 68.232 26.783 67.146 27.62 66.061 28.456 68.232 26.783 67.146 27.62z" fill="black"></path><ellipse transform="matrix(0.6919 -0.722 0.722 0.6919 -35.1869 71.2213)" cx="65.857" cy="76.839" rx="2.866" ry="2.866" fill="black"></ellipse><path d="M63.61 79.184c-1.293-1.239-1.336-3.298-0.098-4.591 1.239-1.293 3.298-1.336 4.591-0.098 1.293 1.239 1.336 3.299 0.098 4.591C66.962 80.379 64.903 80.422 63.61 79.184 62.317 77.945 64.903 80.422 63.61 79.184zM67.576 75.045c-0.989-0.948-2.565-0.915-3.513 0.075-0.948 0.989-0.915 2.565 0.075 3.513 0.99 0.948 2.565 0.915 3.513-0.075C68.599 77.569 68.565 75.993 67.576 75.045 66.587 74.097 68.565 75.993 67.576 75.045z" fill="black"></path><polyline points="91.744,49.472 84.425,49.472 84.425,53.283 91.744,53.283   " fill="black"></polyline><circle cx="84.587" cy="51.378" r="2.9" fill="black"></circle><path d="M84.587 48.131c1.79 0 3.247 1.457 3.247 3.247 0 1.79-1.457 3.247-3.247 3.247-1.79 0-3.247-1.457-3.247-3.247C81.34 49.587 82.797 48.131 84.587 48.131 86.377 48.131 82.797 48.131 84.587 48.131zM84.587 53.862c1.37 0 2.485-1.114 2.485-2.485 0-1.37-1.114-2.485-2.485-2.485-1.37 0-2.485 1.114-2.485 2.485C82.102 52.748 83.216 53.862 84.587 53.862 85.957 53.862 83.216 53.862 84.587 53.862z" fill="black"></path><polyline points="57.439,49.472 50.119,49.472 50.119,53.283 57.439,53.283   " fill="black"></polyline><circle cx="57.276" cy="51.378" r="2.9" fill="black"></circle><path d="M57.276 48.131c-1.79 0-3.247 1.457-3.247 3.247 0 1.79 1.457 3.247 3.247 3.247s3.247-1.457 3.247-3.247C60.523 49.587 59.067 48.131 57.276 48.131S59.067 48.131 57.276 48.131zM57.276 53.862c-1.37 0-2.485-1.114-2.485-2.485 0-1.37 1.114-2.485 2.485-2.485s2.485 1.114 2.485 2.485C59.761 52.748 58.647 53.862 57.276 53.862S58.647 53.862 57.276 53.862z" fill="black"></path></g></g></svg></g></svg></g></svg></g></svg></g></svg></g><defs><mask></mask></defs><mask><g id="SvgjsG2244"><svg viewBox="0 0 395.52 120.80400839800448" height="120.80400839800448" width="395.52"><g><svg viewBox="0 0 596.3971113337038 182.15807455021837" height="120.80400839800448" width="395.52"><g transform="matrix(1,0,0,1,0,51.43282846208814)"><svg viewBox="0 0 395.52 79.2924176260421" height="79.2924176260421" width="395.52"><g id="SvgjsG2243"><svg viewBox="0 0 395.52 79.2924176260421" height="79.2924176260421" width="395.52" id="SvgjsSvg2242"><g><svg viewBox="0 0 395.52 79.2924176260421" height="79.2924176260421" width="395.52"><g transform="matrix(1,0,0,1,0,0)"><svg width="395.52" viewBox="0.75 -39.65 251.87 50.5" height="79.2924176260421" data-palette-color="url(#18f671ec-f310-43eb-93bd-7b1955dc7548)"><path d="M2.05-34.55L20.85-34.55 20.85-29.6 7.65-5.2 21-5.2 20.4 0 0.75 0 0.75-4.9 14-29.45 2.05-29.45 2.05-34.55ZM37.2-27.15Q40.05-27.15 41.7-25.1 43.35-23.05 43.35-19.6L43.35-19.6 43.35 0 37.2 0 37.2-18.9Q37.2-20.8 36.67-21.63 36.15-22.45 35.15-22.45L35.15-22.45Q33.05-22.45 31-18.5L31-18.5 31 0 24.85 0 24.85-37 31-37.65 31-23.3Q32.25-25.25 33.72-26.2 35.2-27.15 37.2-27.15L37.2-27.15ZM48.9-26.45L55.05-26.45 55.05 0 48.9 0 48.9-26.45ZM51.95-39.65Q53.59-39.65 54.62-38.6 55.65-37.55 55.65-35.9L55.65-35.9Q55.65-34.3 54.62-33.25 53.59-32.2 51.95-32.2L51.95-32.2Q50.3-32.2 49.27-33.25 48.25-34.3 48.25-35.9L48.25-35.9Q48.25-37.55 49.27-38.6 50.3-39.65 51.95-39.65L51.95-39.65ZM85.59-34.55L92.09-34.55 82.99-13.15 82.99 0 76.59 0 76.59-13.1 67.49-34.55 74.24-34.55 79.89-18.3 85.59-34.55ZM111.59-6.4Q111.59-5.1 111.94-4.48 112.29-3.85 113.09-3.45L113.09-3.45 111.84 0.65Q109.79 0.4 108.56-0.45 107.34-1.3 106.74-3.05L106.74-3.05Q104.44 0.75 100.29 0.75L100.29 0.75Q96.99 0.75 95.04-1.48 93.09-3.7 93.09-7.4L93.09-7.4Q93.09-11.7 95.76-13.95 98.44-16.2 103.54-16.2L103.54-16.2 105.59-16.2 105.59-18.05Q105.59-20.55 104.71-21.58 103.84-22.6 101.89-22.6L101.89-22.6Q99.54-22.6 96.04-21.3L96.04-21.3 94.64-25.3Q96.64-26.2 98.79-26.68 100.94-27.15 102.89-27.15L102.89-27.15Q111.59-27.15 111.59-18.35L111.59-18.35 111.59-6.4ZM101.94-3.7Q104.34-3.7 105.59-7L105.59-7 105.59-12.55 104.14-12.55Q101.59-12.55 100.41-11.4 99.24-10.25 99.24-7.85L99.24-7.85Q99.24-5.8 99.94-4.75 100.64-3.7 101.94-3.7L101.94-3.7ZM129.74-27.15Q132.59-27.15 134.24-25.1 135.89-23.05 135.89-19.6L135.89-19.6 135.89 0 129.74 0 129.74-18.9Q129.74-20.8 129.21-21.63 128.69-22.45 127.69-22.45L127.69-22.45Q125.59-22.45 123.54-18.5L123.54-18.5 123.54 0 117.39 0 117.39-26.45 122.74-26.45 123.19-23Q124.54-25.1 126.06-26.13 127.59-27.15 129.74-27.15L129.74-27.15ZM176.93-34.55L182.83-34.55 177.98 0 169.63 0 165.93-27.8 162.08 0 153.88 0 149.13-34.55 155.28-34.55 158.48-5.1 162.63-34.55 169.38-34.55 173.43-5.1 176.93-34.55ZM203.28-6.4Q203.28-5.1 203.63-4.48 203.98-3.85 204.78-3.45L204.78-3.45 203.53 0.65Q201.48 0.4 200.25-0.45 199.03-1.3 198.43-3.05L198.43-3.05Q196.13 0.75 191.98 0.75L191.98 0.75Q188.68 0.75 186.73-1.48 184.78-3.7 184.78-7.4L184.78-7.4Q184.78-11.7 187.45-13.95 190.13-16.2 195.23-16.2L195.23-16.2 197.28-16.2 197.28-18.05Q197.28-20.55 196.4-21.58 195.53-22.6 193.58-22.6L193.58-22.6Q191.23-22.6 187.73-21.3L187.73-21.3 186.33-25.3Q188.33-26.2 190.48-26.68 192.63-27.15 194.58-27.15L194.58-27.15Q203.28-27.15 203.28-18.35L203.28-18.35 203.28-6.4ZM193.63-3.7Q196.03-3.7 197.28-7L197.28-7 197.28-12.55 195.83-12.55Q193.28-12.55 192.1-11.4 190.93-10.25 190.93-7.85L190.93-7.85Q190.93-5.8 191.63-4.75 192.33-3.7 193.63-3.7L193.63-3.7ZM221.43-27.15Q224.28-27.15 225.93-25.1 227.58-23.05 227.58-19.6L227.58-19.6 227.58 0 221.43 0 221.43-18.9Q221.43-20.8 220.9-21.63 220.38-22.45 219.38-22.45L219.38-22.45Q217.28-22.45 215.23-18.5L215.23-18.5 215.23 0 209.08 0 209.08-26.45 214.43-26.45 214.88-23Q216.23-25.1 217.75-26.13 219.28-27.15 221.43-27.15L221.43-27.15ZM251.07-29.85L252.62-25.1Q251.57-24.6 250.1-24.4 248.62-24.2 246.42-24.2L246.42-24.2Q248.52-23.2 249.55-21.53 250.57-19.85 250.57-17.4L250.57-17.4Q250.57-13.4 248.12-10.95 245.67-8.5 241.47-8.5L241.47-8.5Q240.22-8.5 238.92-8.9L238.92-8.9Q238.02-8.15 238.02-6.85L238.02-6.85Q238.02-5.85 238.57-5.35 239.12-4.85 240.62-4.85L240.62-4.85 243.42-4.85Q247.42-4.85 249.77-2.78 252.12-0.7 252.12 2.5L252.12 2.5Q252.12 6.3 249.2 8.58 246.27 10.85 240.87 10.85L240.87 10.85Q235.17 10.85 232.9 8.75 230.62 6.65 230.62 2.6L230.62 2.6 236.07 2.6Q236.07 4.75 237.07 5.65 238.07 6.55 240.92 6.55L240.92 6.55Q243.67 6.55 244.82 5.6 245.97 4.65 245.97 2.9L245.97 2.9Q245.97 1.2 245.02 0.4 244.07-0.4 242.07-0.4L242.07-0.4 240.17-0.4Q236.37-0.4 234.62-1.75 232.87-3.1 232.87-5.45L232.87-5.45Q232.87-6.8 233.6-8.03 234.32-9.25 235.57-10.2L235.57-10.2Q233.52-11.5 232.57-13.3 231.62-15.1 231.62-17.7L231.62-17.7Q231.62-22.05 234.22-24.58 236.82-27.1 241.22-27.1L241.22-27.1Q244.47-27.1 246.6-27.8 248.72-28.5 251.07-29.85L251.07-29.85ZM241.22-23Q239.47-23 238.57-21.75 237.67-20.5 237.67-17.8L237.67-17.8Q237.67-15.25 238.57-13.88 239.47-12.5 241.17-12.5L241.17-12.5Q242.92-12.5 243.77-13.73 244.62-14.95 244.62-17.85L244.62-17.85Q244.62-20.55 243.8-21.78 242.97-23 241.22-23L241.22-23Z" opacity="1" transform="matrix(1,0,0,1,0,0)" fill="black" class="wordmark-text-0" id="SvgjsPath2241"></path></svg></g></svg></g></svg></g></svg></g><g transform="matrix(1,0,0,1,414.2390367834855,0)"><svg viewBox="0 0 182.15807455021837 182.15807455021837" height="182.15807455021837" width="182.15807455021837"><g><svg></svg></g><g id="SvgjsG2240"><svg viewBox="0 0 182.15807455021837 182.15807455021837" height="182.15807455021837" width="182.15807455021837"><g><rect width="165.62891593362448" height="165.62891593362448" x="8.264579308296945" y="8.264579308296945" fill="black"></rect><rect width="165.62891593362448" height="165.62891593362448" x="1.7763568394002505e-15" y="1.7763568394002505e-15" fill="black" opacity="0.5"></rect></g><g transform="matrix(1,0,0,1,23.639348908718148,23.613083737991275)"><svg viewBox="0 0 134.87937673278208 134.93190707423582" height="134.93190707423582" width="134.87937673278208"><g><svg xmlns="http://www.w3.org/2000/svg" xmlns:xlink="http://www.w3.org/1999/xlink" version="1.1" x="0" y="0" viewBox="6.35 6.333 87.30000000000001 87.334" enable-background="new 0 0 100 100" xml:space="preserve" height="134.93190707423582" width="134.87937673278208" class="icon-cg-0" data-fill-palette-color="quaternary" id="SvgjsSvg2239"><g fill="black"><g fill="black"><polygon points="50,14.108 50.952,12.457 40.327,6.333 18.058,19.19 18.058,31.163 6.35,37.923 6.35,63.637 18.058,70.397     18.058,80.809 40.329,93.667 51.906,86.97 51.906,56.997 51.868,50.001 51.906,44.411 51.906,13.007 50.952,12.457 50,14.108     48.094,14.108 48.094,44.398 48.094,44.385 48.057,49.995 48.094,57.026 48.094,84.771 40.327,89.265 21.869,78.608     21.869,68.196 10.162,61.437 10.162,40.123 21.869,33.364 21.869,21.391 40.329,10.733 49.048,15.759 50,14.108 48.094,14.108       " fill="black"></polygon><polyline points="19.042,33.931 25.506,37.504 27.35,34.168 20.886,30.596   " fill="black"></polyline><ellipse transform="matrix(0.4837 -0.8752 0.8752 0.4837 -17.7249 41.4675)" cx="26.286" cy="35.758" rx="2.866" ry="2.866" fill="black"></ellipse><path d="M24.715 38.6c-1.567-0.866-2.137-2.846-1.271-4.413 0.866-1.567 2.846-2.137 4.413-1.271 1.567 0.866 2.137 2.846 1.271 4.413C28.262 38.895 26.282 39.466 24.715 38.6 23.149 37.734 26.282 39.466 24.715 38.6zM27.488 33.583c-1.199-0.663-2.714-0.227-3.377 0.973s-0.227 2.714 0.973 3.377c1.2 0.663 2.714 0.227 3.377-0.973C29.124 35.76 28.688 34.246 27.488 33.583 26.289 32.92 28.688 34.246 27.488 33.583z" fill="black"></path><polyline points="20.787,71.015 27.169,67.958 25.523,64.521 19.14,67.578   " fill="black"></polyline><ellipse transform="matrix(0.9019 -0.432 0.432 0.9019 -26.076 17.8262)" cx="26.2" cy="66.309" rx="2.866" ry="2.866" fill="black"></ellipse><path d="M27.602 69.238c-1.615 0.773-3.558 0.089-4.331-1.526-0.773-1.615-0.089-3.558 1.526-4.331 1.615-0.773 3.558-0.089 4.331 1.526C29.902 66.521 29.217 68.464 27.602 69.238 25.988 70.011 29.217 68.464 27.602 69.238zM25.126 64.068c-1.236 0.592-1.76 2.079-1.167 3.314 0.592 1.236 2.079 1.76 3.314 1.167 1.236-0.592 1.76-2.079 1.167-3.315C27.849 64 26.362 63.476 25.126 64.068 23.89 64.661 26.362 63.476 25.126 64.068z" fill="black"></path><polygon points="33.079,27.062 36.137,29.42 36.137,39.045 27.812,44.638 27.812,58.59 36.137,62.363 36.137,72.289     32.708,75.576 35.345,78.327 39.949,73.915 39.949,59.905 31.623,56.133 31.623,46.669 39.949,41.076 39.949,27.545     35.406,24.043 33.079,27.062   " fill="black"></polygon><ellipse transform="matrix(0.6105 -0.792 0.792 0.6105 -6.9293 37.2131)" cx="34.371" cy="25.652" rx="2.866" ry="2.866" fill="black"></ellipse><path d="M32.388 28.224c1.418 1.093 3.461 0.829 4.554-0.589 1.093-1.418 0.829-3.461-0.589-4.554-1.418-1.093-3.461-0.829-4.554 0.589S30.97 27.13 32.388 28.224C33.806 29.316 30.97 27.13 32.388 28.224zM35.888 23.684c1.085 0.837 1.288 2.4 0.451 3.485-0.837 1.085-2.4 1.288-3.485 0.451-1.085-0.837-1.288-2.4-0.451-3.485C33.239 23.049 34.802 22.847 35.888 23.684 36.973 24.52 34.802 22.847 35.888 23.684z" fill="black"></path><ellipse transform="matrix(0.722 -0.6919 0.6919 0.722 -43.6733 44.9864)" cx="34.143" cy="76.839" rx="2.866" ry="2.866" fill="black"></ellipse><path d="M31.897 74.495c1.293-1.239 3.352-1.195 4.591 0.098 1.239 1.293 1.195 3.352-0.098 4.591-1.293 1.239-3.352 1.195-4.591-0.098C30.56 77.793 30.604 75.734 31.897 74.495 33.189 73.256 30.604 75.734 31.897 74.495zM35.863 78.633c0.989-0.948 1.023-2.524 0.075-3.513-0.948-0.989-2.524-1.023-3.513-0.075-0.99 0.948-1.023 2.524-0.075 3.513C33.298 79.548 34.873 79.581 35.863 78.633 36.852 77.685 34.873 79.581 35.863 78.633z" fill="black"></path><polyline points="8.256,53.283 15.576,53.283 15.576,49.472 8.256,49.472   " fill="black"></polyline><circle cx="15.413" cy="51.378" r="2.9" fill="black"></circle><path d="M15.413 54.625c-1.79 0-3.247-1.457-3.247-3.247 0-1.79 1.457-3.247 3.247-3.247 1.79 0 3.247 1.457 3.247 3.247C18.66 53.168 17.204 54.625 15.413 54.625 13.623 54.625 17.204 54.625 15.413 54.625zM15.413 48.893c-1.37 0-2.485 1.114-2.485 2.485 0 1.37 1.114 2.485 2.485 2.485 1.37 0 2.485-1.114 2.485-2.485C17.898 50.007 16.784 48.893 15.413 48.893 14.043 48.893 16.784 48.893 15.413 48.893z" fill="black"></path><polyline points="42.561,53.283 49.881,53.283 49.881,49.472 42.561,49.472   " fill="black"></polyline><circle cx="42.724" cy="51.378" r="2.9" fill="black"></circle><path d="M42.724 54.625c1.79 0 3.247-1.457 3.247-3.247 0-1.79-1.457-3.247-3.247-3.247-1.79 0-3.247 1.457-3.247 3.247C39.477 53.168 40.933 54.625 42.724 54.625 44.514 54.625 40.933 54.625 42.724 54.625zM42.724 48.893c1.37 0 2.485 1.114 2.485 2.485 0 1.37-1.114 2.485-2.485 2.485-1.37 0-2.485-1.114-2.485-2.485C40.239 50.007 41.353 48.893 42.724 48.893 44.094 48.893 41.353 48.893 42.724 48.893z" fill="black"></path><polygon points="50,14.108 50.952,15.759 59.671,10.733 78.131,21.391 78.131,33.364 89.838,40.123 89.838,61.437 78.131,68.196     78.131,78.608 59.673,89.265 51.906,84.771 51.906,57.016 51.944,49.993 51.906,44.385 51.906,44.398 51.906,14.108 50,14.108     50.952,15.759 50,14.108 48.094,14.108 48.094,44.414 48.132,50.003 48.094,57.006 48.094,86.97 59.671,93.667 81.942,80.809     81.942,70.397 93.65,63.638 93.65,37.923 81.942,31.163 81.942,19.19 59.673,6.333 48.094,13.007 48.094,14.108   " fill="black"></polygon><polyline points="79.115,30.596 72.65,34.168 74.494,37.504 80.958,33.931   " fill="black"></polyline><ellipse transform="matrix(0.8752 -0.4837 0.4837 0.8752 -8.0989 40.1191)" cx="73.714" cy="35.758" rx="2.866" ry="2.866" fill="black"></ellipse><path d="M72.143 32.916c1.567-0.866 3.547-0.296 4.413 1.271 0.866 1.567 0.296 3.547-1.271 4.413-1.567 0.866-3.547 0.296-4.413-1.271C70.006 35.761 70.576 33.782 72.143 32.916 73.71 32.05 70.576 33.782 72.143 32.916zM74.916 37.932c1.199-0.663 1.636-2.177 0.973-3.377s-2.177-1.636-3.377-0.973c-1.2 0.663-1.636 2.177-0.973 3.377C72.202 38.159 73.717 38.595 74.916 37.932 76.115 37.27 73.717 38.595 74.916 37.932z" fill="black"></path><polyline points="80.86,67.578 74.477,64.521 72.831,67.958 79.213,71.015   " fill="black"></polyline><ellipse transform="matrix(0.432 -0.9019 0.9019 0.432 -17.8854 104.2191)" cx="73.801" cy="66.309" rx="2.866" ry="2.866" fill="black"></ellipse><path d="M75.203 63.381c1.615 0.773 2.299 2.717 1.526 4.331-0.773 1.615-2.717 2.299-4.331 1.526-1.615-0.773-2.299-2.717-1.526-4.331C71.646 63.292 73.589 62.608 75.203 63.381 76.818 64.154 73.589 62.608 75.203 63.381zM72.727 68.55c1.236 0.592 2.722 0.068 3.314-1.167 0.592-1.236 0.068-2.722-1.167-3.314-1.236-0.592-2.722-0.069-3.315 1.167C70.967 66.472 71.491 67.958 72.727 68.55 73.963 69.142 71.491 67.958 72.727 68.55z" fill="black"></path><polygon points="64.594,24.043 60.051,27.545 60.051,41.076 68.377,46.669 68.377,56.133 60.051,59.905 60.051,73.915     64.655,78.327 67.293,75.576 63.863,72.289 63.863,62.363 72.188,58.59 72.188,44.638 63.863,39.045 63.863,29.42 66.921,27.062     64.595,24.043   " fill="black"></polygon><ellipse transform="matrix(0.792 -0.6105 0.6105 0.792 -2.0106 45.4019)" cx="65.629" cy="25.652" rx="2.866" ry="2.866" fill="black"></ellipse><path d="M63.647 23.08c-1.418 1.093-1.682 3.136-0.589 4.554 1.093 1.418 3.136 1.682 4.554 0.589 1.418-1.093 1.682-3.136 0.589-4.554C67.108 22.251 65.065 21.987 63.647 23.08 62.229 24.173 65.065 21.987 63.647 23.08zM67.146 27.62c-1.085 0.837-2.648 0.634-3.485-0.451-0.837-1.085-0.634-2.648 0.451-3.485 1.085-0.837 2.648-0.634 3.485 0.451C68.434 25.22 68.232 26.783 67.146 27.62 66.061 28.456 68.232 26.783 67.146 27.62z" fill="black"></path><ellipse transform="matrix(0.6919 -0.722 0.722 0.6919 -35.1869 71.2213)" cx="65.857" cy="76.839" rx="2.866" ry="2.866" fill="black"></ellipse><path d="M63.61 79.184c-1.293-1.239-1.336-3.298-0.098-4.591 1.239-1.293 3.298-1.336 4.591-0.098 1.293 1.239 1.336 3.299 0.098 4.591C66.962 80.379 64.903 80.422 63.61 79.184 62.317 77.945 64.903 80.422 63.61 79.184zM67.576 75.045c-0.989-0.948-2.565-0.915-3.513 0.075-0.948 0.989-0.915 2.565 0.075 3.513 0.99 0.948 2.565 0.915 3.513-0.075C68.599 77.569 68.565 75.993 67.576 75.045 66.587 74.097 68.565 75.993 67.576 75.045z" fill="black"></path><polyline points="91.744,49.472 84.425,49.472 84.425,53.283 91.744,53.283   " fill="black"></polyline><circle cx="84.587" cy="51.378" r="2.9" fill="black"></circle><path d="M84.587 48.131c1.79 0 3.247 1.457 3.247 3.247 0 1.79-1.457 3.247-3.247 3.247-1.79 0-3.247-1.457-3.247-3.247C81.34 49.587 82.797 48.131 84.587 48.131 86.377 48.131 82.797 48.131 84.587 48.131zM84.587 53.862c1.37 0 2.485-1.114 2.485-2.485 0-1.37-1.114-2.485-2.485-2.485-1.37 0-2.485 1.114-2.485 2.485C82.102 52.748 83.216 53.862 84.587 53.862 85.957 53.862 83.216 53.862 84.587 53.862z" fill="black"></path><polyline points="57.439,49.472 50.119,49.472 50.119,53.283 57.439,53.283   " fill="black"></polyline><circle cx="57.276" cy="51.378" r="2.9" fill="black"></circle><path d="M57.276 48.131c-1.79 0-3.247 1.457-3.247 3.247 0 1.79 1.457 3.247 3.247 3.247s3.247-1.457 3.247-3.247C60.523 49.587 59.067 48.131 57.276 48.131S59.067 48.131 57.276 48.131zM57.276 53.862c-1.37 0-2.485-1.114-2.485-2.485 0-1.37 1.114-2.485 2.485-2.485s2.485 1.114 2.485 2.485C59.761 52.748 58.647 53.862 57.276 53.862S58.647 53.862 57.276 53.862z" fill="black"></path></g></g></svg></g></svg></g></svg></g></svg></g></svg></g><defs><mask></mask></defs></svg><rect width="395.52" height="120.80400839800448" fill="black" stroke="none" visibility="hidden"></rect></g></mask></svg><rect width="395.52" height="120.80400839800448" fill="black" stroke="none" visibility="hidden"></rect></g></mask><linearGradient x1="0" x2="1" y1="0.548" y2="0.55" id="da92cda9-6b35-4d39-8c9f-d18e7014d5fb"><stop stop-color="#ff6cab" offset="0"></stop><stop stop-color="#7366ff" offset="1"></stop></linearGradient><rect width="395.52" height="120.80400839800448" fill="url(#da92cda9-6b35-4d39-8c9f-d18e7014d5fb)" mask="url(#99aeaacc-e55c-4a20-91b2-3a0df4c77d46)" data-fill-palette-color="accent"></rect></svg><rect width="395.52" height="120.80400839800448" fill="none" stroke="none" visibility="hidden"></rect></g></svg></g></svg>